<?xml version="1.0" encoding="utf-8"?>
<!-- Generator: Adobe Illustrator 23.0.0, SVG Export Plug-In . SVG Version: 6.00 Build 0)  -->
<svg version="1.1" id="Livello_1" xmlns="http://www.w3.org/2000/svg" xmlns:xlink="http://www.w3.org/1999/xlink" x="0px" y="0px"
	 viewBox="0 0 1275.6 1275.6" style="enable-background:new 0 0 1275.6 1275.6;" xml:space="preserve">
<style type="text/css">
	.st0{fill:#FFFFFF;}
	.st1{fill:#EF4135;}
</style>
<circle class="st0" cx="641.3" cy="637.8" r="424.6"/>
<circle class="st1" cx="637.8" cy="637.8" r="389.1"/>
<image style="overflow:visible;enable-background:new    ;" width="633" height="869" xlink:href="DCA5AB1A.png"  transform="matrix(0.6846 0 0 0.6738 415.6216 319.05)">
</image>
<g>
	<g>
		<path class="st1" d="M404.9,342.4c9.5-4.9,19.8-7.4,30.5-7.4c0-1,0-2,0-3c-4,0.1-6.3,2.8-8.3,6.1c-3.8,6.1-7.8,10.6-15.7,9.9
			c0.5,0.5,1,1,1.5,1.5c0.1-6.3,15.6-5.9,19.6-6.5c6.7-0.9,13.5-1.7,20.2-2.6c1.9-0.2,1.9-3.2,0-3c-10.6,1.3-21.1,2.6-31.7,4
			c-4.8,0.6-11,2.1-11,8c0,0.9,0.7,1.4,1.5,1.5c4.5,0.4,9-0.8,12.6-3.7c3.8-3.1,6.1-12.1,11.4-12.2c1.9-0.1,1.9-3,0-3
			c-11.2,0-22,2.6-32,7.8C401.7,340.7,403.2,343.3,404.9,342.4L404.9,342.4z"/>
	</g>
</g>
<g>
	<g>
		<path class="st1" d="M884.1,360.2c13.5,0,13.5-21,0-21C870.6,339.2,870.6,360.2,884.1,360.2L884.1,360.2z"/>
	</g>
</g>
</svg>
