<?xml version="1.0" encoding="utf-8"?>
<!-- Generator: Adobe Illustrator 23.0.0, SVG Export Plug-In . SVG Version: 6.00 Build 0)  -->
<svg version="1.1" id="Livello_1" xmlns="http://www.w3.org/2000/svg" xmlns:xlink="http://www.w3.org/1999/xlink" x="0px" y="0px"
	 viewBox="0 0 788 208" style="enable-background:new 0 0 788 208;" xml:space="preserve">
<style type="text/css">
	.st0{fill:#FFFFFF;}
</style>
<g transform="translate(0.000000,177.000000) scale(0.100000,-0.100000)">
	<path class="st0" d="M1906,1648.1c-53-30-78-81-78-157c0-112,59-170,172-170c78,0,121,22,154,80c28,47,28,131,0,185
		C2113,1665.1,1990,1696.1,1906,1648.1z"/>
	<path class="st0" d="M4630,736.1v-795h115h115v795v795h-115h-115V736.1z"/>
	<path class="st0" d="M487,1095.1c-70-52-130-94-133-94c-2,0-4,22-4,49c0,83,3,81-126,81H110v-595v-595h115h115v369v368l103,75
		c161,117,196,140,210,132c6-4,72-52,145-106l132-98v-370v-370h115h115v439v439l-187,139c-271,200-318,233-339,232
		C623,1190.1,557,1147.1,487,1095.1z"/>
	<path class="st0" d="M2830,709.1v-433l208-152c305-224,308-226,334-219c13,3,80,49,151,101l127,95v-53c0-100-4-97,126-97h114v595
		v595h-115h-115v-363v-363l-102-75c-57-42-125-90-151-108c-56-38-35-47-224,93l-123,90v363v363h-115h-115V709.1z"/>
	<path class="st0" d="M1670,1011.1v-120h110h110v-475v-475h115h115v595v595h-225h-225V1011.1z"/>
	<path class="st0" d="M5243,904.1c-93-126-186-252-207-281l-39-53l33-47c18-26,125-167,238-314l205-268h46c90,0,241,13,241,21
		c0,7-215,284-387,498c-46,57-83,108-83,113c0,13,40,68,232,320c87,114,161,215,164,223c5,13-13,15-134,15h-140L5243,904.1z"/>
	<path class="st0" d="M6260,890.1c-221-305-235-326-223-342c5-6,112-146,238-309l228-298h46c88,0,241,13,241,20c0,5-104,139-231,300
		s-233,298-236,306c-6,17,44,88,240,342c81,107,151,200,154,208c4,12-19,14-138,14h-144L6260,890.1z"/>
	<path class="st0" d="M7052,1049.1c34-46,109-144,167-218c136-177,184-248,177-265c-3-8-107-142-231-300c-124-157-228-292-231-299
		c-4-10,20-14,102-19c201-13,151-46,391,265c115,150,222,290,237,310l28,38l-28,44c-16,24-108,152-204,285l-175,241h-148h-148
		L7052,1049.1z"/>
</g>
</svg>
